<svg width="512" height="451" viewBox="0 0 512 451" fill="none" xmlns="http://www.w3.org/2000/svg">
<path d="M437.475 450.817L473.753 450.817L448.1 425.164C434.268 411.332 425.63 393.341 423.308 373.825C459.402 350.138 485.796 318.974 499.925 283.235C514.043 247.524 515.818 208.211 505.055 169.547C492.142 123.154 461.854 80.8686 419.773 50.4785C374.044 17.4556 317.117 0 255.144 0C177.076 0 111.272 22.4296 64.8513 64.8626C23.0315 103.091 -0.000244141 154.655 -0.000244141 210.059C-0.000244141 236.976 5.48069 263.166 16.2893 287.903C27.4745 313.5 43.8532 336.293 64.9705 355.645C111.454 398.245 177.216 420.763 255.145 420.763C284.075 420.763 314.262 416.901 341.214 409.814C366.725 435.984 401.295 450.817 437.475 450.817V450.817ZM255.144 30.0545C379.408 30.0545 455.658 104.162 476.102 177.607C495.421 247.013 466.942 312.595 399.921 353.04L392.432 357.559L392.662 366.302C393.119 383.607 397.245 400.275 404.629 415.343C386.648 409.259 370.331 398.229 357.554 383.133L351.2 375.627L341.778 378.445C315.337 386.353 284.571 390.708 255.144 390.708C100.492 390.708 30.0542 297.065 30.0542 210.059C30.0542 163.198 49.6137 119.511 85.13 87.0458C125.917 49.7622 184.708 30.0545 255.144 30.0545V30.0545Z" fill="black"/>
</svg>
