<svg width="612" height="612" viewBox="0 0 612 612" fill="none" xmlns="http://www.w3.org/2000/svg">
<path d="M306 0C137.272 0 0 137.27 0 305.997C0 474.727 137.272 612 306 612C474.728 612 612 474.727 612 305.997C612 137.27 474.73 0 306 0ZM306 576.657C156.76 576.657 35.343 455.239 35.343 305.997C35.343 156.759 156.76 35.343 306 35.343C455.24 35.343 576.657 156.759 576.657 305.998C576.657 455.24 455.24 576.657 306 576.657Z" fill="#262626"/>
<path d="M474.47 144.734C469.847 136.135 459.134 132.916 450.537 137.537L251.64 244.485C248.587 246.127 246.084 248.629 244.443 251.683L137.538 450.536C133.756 457.571 135.229 466.025 140.601 471.397C141.792 472.59 143.175 473.629 144.738 474.467C150.051 477.324 156.174 477.177 161.166 474.622L161.169 474.626L161.244 474.586C161.316 474.549 161.387 474.509 161.458 474.471L360.453 367.601C363.507 365.961 366.009 363.459 367.653 360.404L474.13 162.043C474.363 161.642 474.585 161.237 474.785 160.821L474.929 160.554L474.911 160.548C477.174 155.671 477.211 149.833 474.47 144.734ZM196.403 415.684L264.336 289.323L322.754 347.743L196.403 415.684ZM347.76 322.764L289.339 264.343L415.69 196.403" fill="#262626"/>
<path d="M187.678 429.066L256.819 277.358L330.739 343.454L187.678 429.066Z" fill="#262626"/>
</svg>
