<svg width="368" height="368" viewBox="0 0 368 368" fill="none" xmlns="http://www.w3.org/2000/svg">
<path d="M367.849 6.94406C367.793 6.52006 367.729 6.11206 367.601 5.69606C367.465 5.24006 367.281 4.82406 367.073 4.40006C366.961 4.16806 366.921 3.92006 366.785 3.69606C366.697 3.55206 366.553 3.45606 366.449 3.32006C366.185 2.95206 365.873 2.63206 365.545 2.30406C365.217 1.97606 364.889 1.67206 364.513 1.40806C364.377 1.31206 364.289 1.17606 364.153 1.09606C363.929 0.960062 363.681 0.928062 363.449 0.816062C363.009 0.600062 362.577 0.416062 362.113 0.280062C361.721 0.176062 361.337 0.120062 360.937 0.0720622C360.465 0.0160622 360.009 -0.0159378 359.537 0.00806221C359.097 0.0320622 358.673 0.120062 358.241 0.224062C357.969 0.288062 357.689 0.264062 357.417 0.360062L5.41746 120.36C2.23346 121.432 0.0654581 124.4 0.00145807 127.768C-0.0625419 131.136 1.98546 134.184 5.13746 135.392L169.593 198.584L240.657 363.096C241.929 366.032 244.825 367.92 248.001 367.92C248.137 367.92 248.265 367.92 248.401 367.912C251.737 367.744 254.609 365.528 255.625 362.352L367.625 10.3521C367.705 10.1041 367.681 9.84806 367.729 9.59206C367.825 9.14406 367.897 8.71206 367.913 8.25606C367.929 7.80806 367.905 7.38406 367.849 6.94406ZM31.4735 128.368L330.009 26.5921L173.617 182.984L31.4735 128.368ZM246.857 337.112L185.097 194.136L342.401 36.8241L246.857 337.112Z" fill="#262626"/>
</svg>
